{"asset":{"version":"2.0","generator":"babylon.js glTF exporter for maya 2018 v1.2.31"},"scene":0,"scenes":[{"nodes":[0,1],"extensions":{}}],"nodes":[{"mesh":0,"translation":[0.0,0.0534678549,0.0],"rotation":[0.0,0.0,-0.324179083,0.945995748],"scale":[1.0,1.0,1.0],"name":"pPlane1"},{"mesh":1,"translation":[0.0,0.0534678549,-1.97486973],"rotation":[0.0,0.0,-0.324179083,0.945995748],"scale":[0.5899393,0.5899393,0.5899393],"name":"pPlane2"}],"meshes":[{"primitives":[{"attributes":{"POSITION":1,"NORMAL":2,"TANGENT":3,"TEXCOORD_0":4},"indices":0,"mode":4,"material":0}],"name":"pPlane1"},{"primitives":[{"attributes":{"POSITION":6,"NORMAL":7,"TANGENT":8,"TEXCOORD_0":9},"indices":5,"mode":4,"material":0}],"name":"pPlane2"}],"accessors":[{"bufferView":0,"componentType":5123,"count":600,"type":"SCALAR","name":"accessorIndices"},{"bufferView":1,"componentType":5126,"count":121,"max":[0.5,0.0,0.5],"min":[-0.5,0.0,-0.5],"type":"VEC3","name":"accessorPositions"},{"bufferView":1,"byteOffset":1452,"componentType":5126,"count":121,"type":"VEC3","name":"accessorNormals"},{"bufferView":2,"componentType":5126,"count":121,"type":"VEC4","name":"accessorTangents"},{"bufferView":3,"componentType":5126,"count":121,"type":"VEC2","name":"accessorUVs"},{"bufferView":0,"byteOffset":1200,"componentType":5123,"count":600,"type":"SCALAR","name":"accessorIndices"},{"bufferView":1,"byteOffset":2904,"componentType":5126,"count":121,"max":[0.5,0.0,0.5],"min":[-0.5,0.0,-0.5],"type":"VEC3","name":"accessorPositions"},{"bufferView":1,"byteOffset":4356,"componentType":5126,"count":121,"type":"VEC3","name":"accessorNormals"},{"bufferView":2,"byteOffset":1936,"componentType":5126,"count":121,"type":"VEC4","name":"accessorTangents"},{"bufferView":3,"byteOffset":968,"componentType":5126,"count":121,"type":"VEC2","name":"accessorUVs"},{"bufferView":4,"componentType":5126,"count":2,"max":[8.291667],"min":[0.0],"type":"SCALAR","name":"accessorAnimationInput"},{"bufferView":5,"componentType":5126,"count":2,"type":"VEC4","name":"accessorAnimationRotations"},{"bufferView":4,"byteOffset":8,"componentType":5126,"count":2,"max":[8.291667],"min":[0.0],"type":"SCALAR","name":"accessorAnimationInput"},{"bufferView":6,"componentType":5126,"count":2,"type":"VEC3","name":"accessorAnimationPositions"},{"bufferView":4,"byteOffset":16,"componentType":5126,"count":2,"max":[8.291667],"min":[0.0],"type":"SCALAR","name":"accessorAnimationInput"},{"bufferView":6,"byteOffset":24,"componentType":5126,"count":2,"type":"VEC3","name":"accessorAnimationScales"},{"bufferView":4,"byteOffset":24,"componentType":5126,"count":2,"max":[8.291667],"min":[0.0],"type":"SCALAR","name":"accessorAnimationInput"},{"bufferView":5,"byteOffset":32,"componentType":5126,"count":2,"type":"VEC4","name":"accessorAnimationRotations"},{"bufferView":4,"byteOffset":32,"componentType":5126,"count":2,"max":[8.291667],"min":[0.0],"type":"SCALAR","name":"accessorAnimationInput"},{"bufferView":6,"byteOffset":48,"componentType":5126,"count":2,"type":"VEC3","name":"accessorAnimationPositions"}],"bufferViews":[{"buffer":0,"byteLength":2400,"name":"bufferViewScalar"},{"buffer":0,"byteOffset":2400,"byteLength":5808,"byteStride":12,"name":"bufferViewFloatVec3"},{"buffer":0,"byteOffset":8208,"byteLength":3872,"byteStride":16,"name":"bufferViewFloatVec4"},{"buffer":0,"byteOffset":12080,"byteLength":1936,"byteStride":8,"name":"bufferViewFloatVec2"},{"buffer":0,"byteOffset":14016,"byteLength":40,"name":"bufferViewAnimationFloatScalar"},{"buffer":0,"byteOffset":14056,"byteLength":64,"name":"bufferViewAnimationFloatVec4"},{"buffer":0,"byteOffset":14120,"byteLength":72,"name":"bufferViewAnimationFloatVec3"}],"buffers":[{"uri":"double_sided_games.bin","byteLength":14192}],"materials":[{"pbrMetallicRoughness":{"baseColorFactor":[1.0,1.0,1.0,1.0],"baseColorTexture":{"index":0,"texCoord":0},"metallicFactor":0.0,"roughnessFactor":0.450053632},"emissiveFactor":[0.0,0.0,0.0],"alphaMode":"BLEND","name":"lambert1"}],"textures":[{"sampler":0,"source":0,"name":"lambert1_baseColor.png"}],"images":[{"uri":"lambert1_baseColor.png"}],"samplers":[{"magFilter":9729,"minFilter":9987,"wrapS":10497,"wrapT":10497}],"animations":[{"channels":[{"sampler":0,"target":{"node":0,"path":"rotation"}},{"sampler":1,"target":{"node":0,"path":"translation"}},{"sampler":2,"target":{"node":1,"path":"scale"}},{"sampler":3,"target":{"node":1,"path":"rotation"}},{"sampler":4,"target":{"node":1,"path":"translation"}}],"samplers":[{"input":10,"interpolation":"LINEAR","output":11},{"input":12,"interpolation":"LINEAR","output":13},{"input":14,"interpolation":"LINEAR","output":15},{"input":16,"interpolation":"LINEAR","output":17},{"input":18,"interpolation":"LINEAR","output":19}],"name":"All Animations"}]}